<svg xmlns="http://www.w3.org/2000/svg" width="64" fill="none" viewBox="0 0 60 100">
<path fill="#FF6F0F" d="M29.234 36.895C13.09 36.895 0 49.695 0 65.855c0 22.327 29.318 34.175 29.234 34.143-.08.032 29.234-11.816 29.234-34.143 0-16.148-13.089-28.96-29.234-28.96Zm0 40.684A11.069 11.069 0 0 1 18.386 64.34a11.073 11.073 0 0 1 8.702-8.693A11.068 11.068 0 0 1 40.312 66.51a11.07 11.07 0 0 1-11.078 11.088v-.02Z"></path>
<path fill="#00A05B" d="M35.817 0c-6.823 0-11.574 4.768-12.322 10.4-9.094-2.512-16.22 4.4-16.22 12 0 5.82 3.999 10.52 9.33 12.047 4.299 1.228 12.041.312 12.041.312-.04-1.88 1.692-3.944 4.364-5.824 7.598-5.343 13.54-7.863 14.457-15.151C48.427 6.16 42.767 0 35.817 0Z"></path>
</svg>